<?xml version="1.0" encoding="iso-8859-1"?>
<!-- Generator: Adobe Illustrator 19.0.0, SVG Export Plug-In . SVG Version: 6.00 Build 0)  -->
<svg xmlns="http://www.w3.org/2000/svg" xmlns:xlink="http://www.w3.org/1999/xlink" version="1.1" id="Capa_1" x="0px" y="0px" viewBox="0 0 512 512" style="enable-background:new 0 0 512 512;" xml:space="preserve" width="512px" height="512px">
<g>
	<g>
		<path d="M307.209,42.667H102.4c-14.114,0-25.6,11.486-25.6,25.591v68.284c0,14.106,11.486,25.591,25.6,25.591h204.809    c14.114,0,25.591-11.486,25.591-25.591V68.258C332.8,54.153,321.323,42.667,307.209,42.667z M315.725,136.542    c0,4.702-3.823,8.525-8.525,8.525H102.391c-4.71,0-8.533-3.823-8.533-8.525V68.258c0-4.702,3.831-8.525,8.533-8.525H307.2    c4.702,0,8.525,3.823,8.525,8.525V136.542z" fill="#FFFFFF"/>
	</g>
</g>
<g>
	<g>
		<path d="M508.203,95.3l-51.2-34.133c-1.399-0.93-3.046-1.434-4.736-1.434h-128c-4.71,0-8.533,3.814-8.533,8.533v68.267    c0,4.719,3.823,8.533,8.533,8.533h128c1.69,0,3.328-0.503,4.736-1.434l51.2-34.133c2.372-1.587,3.797-4.25,3.797-7.1    C512,99.55,510.575,96.887,508.203,95.3z M449.681,128H332.8V76.8h116.881l38.4,25.6L449.681,128z" fill="#FFFFFF"/>
	</g>
</g>
<g>
	<g>
		<path d="M366.933,59.733v85.333h51.2V59.733H366.933z M401.067,128H384V76.8h17.067V128z" fill="#FFFFFF"/>
	</g>
</g>
<g>
	<g>
		<path d="M409.609,349.867H204.8c-14.114,0-25.6,11.486-25.6,25.591v68.284c0,14.106,11.486,25.591,25.6,25.591h204.809    c14.114,0,25.591-11.486,25.591-25.591v-68.284C435.2,361.353,423.723,349.867,409.609,349.867z M418.125,443.742    c0,4.702-3.823,8.525-8.525,8.525H204.791c-4.71,0-8.533-3.823-8.533-8.525v-68.284c0-4.702,3.831-8.525,8.533-8.525H409.6    c4.702,0,8.525,3.823,8.525,8.525V443.742z" fill="#FFFFFF"/>
	</g>
</g>
<g>
	<g>
		<path d="M187.733,366.933h-128c-1.69,0-3.328,0.503-4.736,1.434L3.797,402.5C1.425,404.087,0,406.75,0,409.6    c0,2.85,1.425,5.513,3.797,7.1l51.2,34.133c1.408,0.93,3.055,1.434,4.736,1.434h128c4.71,0,8.533-3.814,8.533-8.533v-68.267    C196.267,370.748,192.444,366.933,187.733,366.933z M179.2,435.2H62.319l-38.4-25.6l38.4-25.6H179.2V435.2z" fill="#FFFFFF"/>
	</g>
</g>
<g>
	<g>
		<path d="M93.867,366.933v85.333h51.2v-85.333H93.867z M128,435.2h-17.067V384H128V435.2z" fill="#FFFFFF"/>
	</g>
</g>
<g>
	<g>
		<path d="M443.733,230.4H68.267c-9.412,0-17.067-7.654-17.067-17.067v-68.267c0-9.412,7.654-17.067,17.067-17.067h17.067    c4.71,0,8.533-3.814,8.533-8.533V85.333c0-4.719-3.823-8.533-8.533-8.533H68.267C30.626,76.8,0,107.426,0,145.067v68.267    C0,250.974,30.626,281.6,68.267,281.6h375.467c9.412,0,17.067,7.654,17.067,17.067v68.267c0,9.412-7.654,17.067-17.067,17.067    h-17.067c-4.71,0-8.533,3.814-8.533,8.533v34.133c0,4.719,3.823,8.533,8.533,8.533h17.067c37.641,0,68.267-30.626,68.267-68.267    v-68.267C512,261.026,481.374,230.4,443.733,230.4z M494.933,366.933c0,28.237-22.963,51.2-51.2,51.2H435.2v-17.067h8.533    c18.825,0,34.133-15.309,34.133-34.133v-68.267c0-18.825-15.309-34.133-34.133-34.133H68.267c-28.228,0-51.2-22.963-51.2-51.2    v-68.267c0-28.237,22.972-51.2,51.2-51.2H76.8v17.067h-8.533c-18.825,0-34.133,15.309-34.133,34.133v68.267    c0,18.825,15.309,34.133,34.133,34.133h375.467c28.237,0,51.2,22.963,51.2,51.2V366.933z" fill="#FFFFFF"/>
	</g>
</g>
<g>
</g>
<g>
</g>
<g>
</g>
<g>
</g>
<g>
</g>
<g>
</g>
<g>
</g>
<g>
</g>
<g>
</g>
<g>
</g>
<g>
</g>
<g>
</g>
<g>
</g>
<g>
</g>
<g>
</g>
</svg>
